# AST/ASF file generated using VICON BodyLanguage
# -----------------------------------------------
:version 1.10
:name VICON
:units
  mass 1.0
  length 0.45
  angle deg
:documentation
   .ast/.asf automatically generated from VICON data using
   VICON BodyBuilder and BodyLanguage model FoxedUp or BRILLIANT.MOD
:root
   order TX TY TZ RX RY RZ
   axis XYZ
   position 0 0 0  
   orientation 0 0 0 
:bonedata
  begin
     id 1 
     name lhipjoint
     direction 0.653368 -0.678499 0.335782 
     length 2.51848 
     axis 0 0 0  XYZ
  end
  begin
     id 2 
     name lfemur
     direction 0.34202 -0.939693 0  
     length 6.57749  
     axis 0 0 20  XYZ
    dof rx ry rz
    limits (-160.0 20.0)
           (-70.0 70.0)
           (-60.0 70.0)
  end
  begin
     id 3 
     name ltibia
     direction 0.34202 -0.939693 0   
     length 7.94618   
     axis 0 0 20   XYZ
    dof rx
    limits (-10.0 170.0)
  end
  begin
     id 4 
     name lfoot
     direction 0.0811271 -0.222895 0.971461   
     length 2.31339   
     axis -90 7.62852e-016 20   XYZ
    dof rx rz
    limits (-45.0 90.0)
           (-70.0 20.0)
  end
  begin
     id 5 
     name ltoes
     direction 1.53568e-011 -4.21885e-011 1   
     length 1.15935   
     axis -90 7.62852e-016 20   XYZ
    dof rx
    limits (-90.0 20.0)
  end
  begin
     id 6 
     name rhipjoint
     direction -0.640058 -0.688614 0.340788   
     length 2.48149  
     axis 0 0 0  XYZ 
  end
  begin
     id 7 
     name rfemur
     direction -0.34202 -0.939693 0   
     length 6.57875   
     axis 0 0 -20   XYZ
    dof rx ry rz
    limits (-160.0 20.0)
           (-70.0 70.0)
           (-70.0 60.0)
  end
  begin
     id 8 
     name rtibia
     direction -0.34202 -0.939693 0   
     length 7.977   
     axis 0 0 -20   XYZ
    dof rx
    limits (-10.0 170.0)
 end
 begin
     id 9 
     name rfoot
     direction -0.0979793 -0.269196 0.958089   
     length 2.19857  
     axis -90 -7.62852e-016 -20   XYZ
    dof rx rz
    limits (-45.0 90.0)
           (-20.0 70.0)
  end
  begin
     id 10 
     name rtoes
     direction -1.53556e-011 -4.21868e-011 1   
     length 1.09838   
     axis -90 -7.62852e-016 -20   XYZ
    dof rx
    limits (-90.0 20.0)
  end
  begin
     id 11 
     name lowerback
     direction 0.0149039 0.998517 -0.0523597   
     length 2.10809   
     axis 0 0 0   XYZ
    dof rx ry rz
    limits (-20.0 45.0)
           (-30.0 30.0)
           (-30.0 30.0)
  end
  begin
     id 12 
     name upperback
     direction -0.00882659 0.999418 -0.0329624   
     length 2.1102   
     axis 0 0 0   XYZ
    dof rx ry rz
    limits (-20.0 45.0)
           (-30.0 30.0)
           (-30.0 30.0)
  end
  begin
     id 13 
     name thorax
     direction -0.0165585 0.999826 -0.0085833   
     length 2.11039   
     axis 0 0 0   XYZ
    dof rx ry rz
    limits (-20.0 45.0)
           (-30.0 30.0)
           (-30.0 30.0)
  end
  begin
     id 14 
     name lowerneck
     direction -0.0130877 0.999911 0.00260353   
     length 1.73253   
     axis 0 0 0   XYZ
    dof rx ry rz
    limits (-20.0 45.0)
           (-30.0 30.0)
           (-30.0 30.0)
  end
  begin
     id 15 
     name upperneck
     direction -0.0348454 0.928205 -0.370435   
     length 1.66692   
     axis 0 0 0   XYZ
    dof rx ry rz
    limits (-20.0 45.0)
           (-30.0 30.0)
           (-30.0 30.0)
  end
  begin
     id 16
     name head
     direction -0.00807754 0.992494 -0.122026  
     length 1.72765  
     axis 0 0 0   XYZ
    dof rx ry rz
    limits (-20.0 45.0)
           (-30.0 30.0)
           (-30.0 30.0)
  end
  begin
     id 17 
     name lclavicle
     direction 0.987582 0.144023 0.0627671  
     length 3.49235  
     axis 0 0 0   XYZ
    dof ry rz
    limits (-20.0 10.0)
           (0.0 20.0)
  end
  begin
     id 18 
     name lhumerus
     direction 1 -4.48958e-011 -1.45183e-018   
     length 5.41917   
     axis 180 -30 -90   XYZ
    dof rx ry rz
    limits (-60.0 90.0)
           (-90.0 90.0)
           (-90.0 90.0)
  end
  begin
     id 19
     name lradius
     direction 1 -4.48999e-011 5.75106e-027   
     length 2.44373   
     axis 180 -30 -90   XYZ
    dof rx
    limits (-10.0 170.0)
  end
  begin
     id 20
     name lwrist
     direction 1 -4.48987e-011 1.53461e-026   
     length 1.22186   
     axis -1.09697e-014 90 90   XYZ
    dof ry
    limits (-180.0 0.0)
 end
  begin
     id 21 
     name lhand
     direction 1 -4.48881e-011 3.06923e-026   
     length 0.727502   
     axis -1.95843e-014 90 90   XYZ
    dof rx rz
    limits (-90.0 90.0)
           (-45.0 45.0)
  end
  begin
     id 22 
     name lfingers
     direction 1 -4.48907e-011 6.13845e-026   
     length 0.586531   
     axis -3.91686e-014 90 90   XYZ
    dof rx
    limits (0.0 90.0)
  end
  begin
     id 23
     name lthumb
     direction 0.707107 -6.3487e-011 0.707107   
     length 0.842145   
     axis -90 45 2.85299e-015   XYZ
    dof rx rz
    limits (-45.0 45.0)
           (-45.0 45.0)
  end
  begin
     id 24 
     name rclavicle
     direction -0.980998 0.169556 0.0943023   
     length 3.29272  
     axis 0 0 0   XYZ 
    dof ry rz
    limits (-10.0 20.0)
           (-20.0 0.0)
  end
  begin
     id 25 
     name rhumerus
     direction -1 -1.83355e-005 2.45537e-005  
     length 5.58976   
     axis 180 30 90   XYZ
    dof rx ry rz
    limits (-90.0 60.0)
           (-90.0 90.0)
           (-90.0 90.0)
  end
  begin
     id 26 
     name rradius
     direction -1 -4.48967e-011 5.97228e-027   
     length 2.4806   
     axis 180 30 90   XYZ
    dof rx
    limits (-10.0 170.0)
  end
  begin
     id 27 
     name rwrist
     direction -1 -4.48963e-011 1.53461e-026   
     length 1.2403   
     axis -1.09697e-014 -90 -90   XYZ
    dof ry
    limits (-180.0 0.0)
  end
  begin
     id 28
     name rhand
     direction -1 -4.48881e-011 3.06923e-026   
     length 0.816009   
     axis -1.95843e-014 -90 -90   XYZ
    dof rx rz
    limits (-90.0 90.0)
           (-45.0 45.0)
  end
  begin
     id 29
     name rfingers
     direction -1 -4.49018e-011 6.13845e-026   
     length 0.657887   
     axis -3.91686e-014 -90 -90   XYZ
    dof rx
    limits (0.0 90.0)
  end
  begin
     id 30
     name rthumb
     direction -0.707107 -6.34872e-011 0.707107   
     length 0.944599   
     axis -90 -45 -2.85299e-015   XYZ
    dof rx rz
    limits (-45.0 45.0)
           (-45.0 45.0)
  end
:hierarchy
  begin
    root lhipjoint rhipjoint lowerback
    lhipjoint lfemur
    lfemur ltibia
    ltibia lfoot
    lfoot ltoes
    rhipjoint rfemur
    rfemur rtibia
    rtibia rfoot
    rfoot rtoes
    lowerback upperback
    upperback thorax
    thorax lowerneck lclavicle rclavicle
    lowerneck upperneck
    upperneck head
    lclavicle lhumerus
    lhumerus lradius
    lradius lwrist
    lwrist lhand lthumb
    lhand lfingers
    rclavicle rhumerus
    rhumerus rradius
    rradius rwrist
    rwrist rhand rthumb
    rhand rfingers
  end

#!OML:ASF F:\VICON\USERDATA\INSTALL\rory3\rory3.ASF
:FULLY-SPECIFIED
:DEGREES
17
root -1.33242 15.8817 26.108 -156.58 3.39777 -181.391
lowerback -0.506739 -2.89071 -2.63371
upperback -7.46359 -3.46286 -0.0977213
thorax -7.34511 -1.31687 1.53484
lowerneck -24.847 2.34162 1.08322
upperneck 25.6888 3.4731 -0.326857
head 12.7133 1.75876 0.353721
rclavicle 3.97569e-015 3.97569e-016
rhumerus -27.7354 8.04119 -77.6665
rradius 26.0912
rwrist 10.1607
rhand -2.20429 16.5039
rfingers 7.12502
rthumb 23.4774 -12.0836
lclavicle 3.97569e-015 3.97569e-016
lhumerus -9.77513 -39.4969 87.461
lradius 21.2673
lwrist -45.7399
lhand 1.76391 15.6941
lfingers 7.12502
lthumb 27.2788 43.741
rfemur -74.3635 0.822416 21.7515
rtibia 47.3425
rfoot 7.44589 -13.0877
rtoes 3.86552
lfemur -11.7378 -8.49502 -27.2652
ltibia 28.8156
lfoot -40.8598 20.329
ltoes -19.2401
18
root -1.32056 15.7961 25.9061 -157.013 3.17842 -181.416
lowerback -0.805322 -2.94689 -2.55771
upperback -7.487 -3.51086 -0.036614
thorax -7.19544 -1.34136 1.54419
lowerneck -24.8521 2.35349 0.97404
upperneck 26.1281 3.56588 -0.265305
head 12.8888 1.80932 0.420939
rclavicle 4.5969e-014 9.14409e-015
rhumerus -26.1173 4.55344 -74.2171
rradius 22.7245
rwrist 14.5554
rhand -1.85634 16.5511
rfingers 7.12502
rthumb 23.8112 -11.9933
lclavicle 4.5969e-014 9.14409e-015
lhumerus -6.8687 -35.6127 85.3442
lradius 19.7024
lwrist -47.9475
lhand 2.19269 17.1281
lfingers 7.12502
lthumb 27.6889 45.1099
rfemur -74.261 0.523478 22.2031
rtibia 49.1323
rfoot 7.24974 -11.8949
rtoes 7.73082
lfemur -10.5014 -8.60588 -27.3798
ltibia 29.0869
lfoot -40.9862 20.5585
ltoes -20.8064
19
root -1.31192 15.709 25.6987 -157.269 2.83798 -181.315
lowerback -1.45595 -3.00818 -2.16341
upperback -7.57795 -3.52926 -0.0183187
thorax -6.93809 -1.36516 1.31399
lowerneck -24.3752 2.294 0.891925
upperneck 26.4165 3.54569 -0.153442
head 12.9066 1.82963 0.475015
rclavicle -6.4605e-015 6.36111e-015
rhumerus -24.7406 0.155924 -70.5872
rradius 19.6934
rwrist 19.5869
rhand -1.18313 15.5867
rfingers 7.12502
rthumb 24.4567 -12.8721
lclavicle -6.4605e-015 6.36111e-015
lhumerus -4.26222 -31.6094 83.4902
lradius 18.4048
lwrist -50.8989
lhand 2.91601 17.8552
lfingers 7.12502
lthumb 28.3803 45.7238
rfemur -74.2343 0.200902 22.734
rtibia 51.0589
rfoot 5.63578 -10.8219
rtoes 8.25527
lfemur -9.48749 -8.96739 -27.3247
ltibia 29.4842
lfoot -41.3702 20.4356
ltoes -21.3228
20
root -1.30384 15.6256 25.4757 -157.532 2.36326 -180.993
lowerback -2.01545 -3.09882 -1.48249
upperback -7.80888 -3.56888 0.101275
thorax -6.89673 -1.40167 1.03863
lowerneck -23.9751 2.16434 0.894131
upperneck 27.0082 3.48708 -0.232067
head 13.0697 1.82309 0.442133
rclavicle -4.87022e-015 3.97569e-015
rhumerus -23.6817 -5.52238 -66.4478
rradius 16.6586
rwrist 25.9642
rhand -1.34564 15.1903
rfingers 7.12502
rthumb 24.3009 -13.2894
lclavicle -4.87022e-015 3.97569e-015
lhumerus -2.14829 -27.5344 82.0322
lradius 17.4012
lwrist -54.7538
lhand 4.07594 17.9805
lfingers 7.12502
lthumb 29.4882 45.6592
rfemur -74.0108 -0.207367 23.5566
rtibia 52.9707
rfoot 3.18763 -10.3645
rtoes 8.51615
lfemur -8.40819 -9.47197 -27.0543
ltibia 29.9725
lfoot -41.8788 20.1782
ltoes -21.4088
21
root -1.2934 15.5469 25.2446 -157.736 1.87986 -180.797
lowerback -1.67031 -3.3851 -1.09302
upperback -8.91779 -3.78103 0.461076
thorax -8.30139 -1.42348 1.24948
lowerneck -22.8143 2.08688 0.625117
upperneck 28.2196 3.76018 -0.283983
head 13.3309 1.98604 0.532321
rclavicle -3.4427e-014 -5.96354e-015
rhumerus -24.0496 -12.1788 -61.1482
rradius 13.934
rwrist 34.2407
rhand -2.03805 15.1542
rfingers 7.12502
rthumb 23.6369 -13.4128
lclavicle -3.4427e-014 -5.96354e-015
lhumerus -1.84563 -21.4778 81.7758
lradius 16.5467
lwrist -60.5301
lhand 3.71456 18.3009
lfingers 7.12502
lthumb 29.1432 46.0399
rfemur -73.7559 -0.372637 23.8897
rtibia 54.7752
rfoot 0.365012 -10.6486
rtoes 12.8306
lfemur -7.43401 -9.89408 -26.8898
ltibia 30.5277
lfoot -42.0642 19.9452
ltoes -21.3158
22
root -1.27696 15.4867 25.0141 -157.872 1.30275 -180.476
lowerback -2.93648 -3.43153 -0.304476
upperback -8.82254 -3.77619 0.466185
thorax -7.51591 -1.47434 0.746077
lowerneck -22.7237 2.01419 0.472005
upperneck 28.702 3.71606 -0.0355672
head 13.5045 2.00759 0.6593
rclavicle 5.57964e-014 1.03368e-014
rhumerus -23.9671 -25.4641 -54.3661
rradius 11.1581
rwrist 47.9692
rhand -3.32211 15.1906
rfingers 7.12502
rthumb 22.4048 -13.5301
lclavicle 5.57964e-014 1.03368e-014
lhumerus 0.77901 -20.7358 80.0008
lradius 16.2885
lwrist -61.2567
lhand 3.22373 19.3597
lfingers 7.12502
lthumb 28.6743 47.179
rfemur -73.5537 -0.388097 24.227
rtibia 56.3495
rfoot -1.94548 -10.9798
rtoes 15.3232
lfemur -6.60788 -9.98486 -26.4608
ltibia 31.0906
lfoot -41.7315 19.697
ltoes -22.1248
